<svg width="56" height="56" viewBox="0 0 56 56" fill="none" xmlns="http://www.w3.org/2000/svg">
<g clip-path="url(#clip0_964_663)" filter="url(#filter0_d_964_663)">
<path d="M28 47.2969C40.8665 47.2969 51.2969 36.8665 51.2969 24C51.2969 11.1335 40.8665 0.703125 28 0.703125C15.1335 0.703125 4.70312 11.1335 4.70312 24C4.70312 36.8665 15.1335 47.2969 28 47.2969Z" fill="#FEF5E4"/>
<path d="M28 43.5234C38.7825 43.5234 47.5234 34.7825 47.5234 24C47.5234 13.2175 38.7825 4.47656 28 4.47656C17.2175 4.47656 8.47656 13.2175 8.47656 24C8.47656 34.7825 17.2175 43.5234 28 43.5234Z" fill="#FFF5EE"/>
<path d="M28 4.47656C27.2388 4.47656 26.4884 4.52166 25.75 4.60641C35.4725 5.72222 43.0234 13.9786 43.0234 24C43.0234 34.0214 35.4725 42.2778 25.75 43.3936C26.4884 43.4783 27.2388 43.5234 28 43.5234C38.7825 43.5234 47.5234 34.7825 47.5234 24C47.5234 13.2175 38.7825 4.47656 28 4.47656Z" fill="#FFF5EE"/>
<path d="M36.5957 23.0868L22.4228 14.9041C21.7199 14.4982 20.8412 15.0055 20.8412 15.8172V32.1827C20.8412 32.9944 21.7199 33.5016 22.4228 33.0958L36.5957 24.9131C37.2987 24.5072 37.2987 23.4926 36.5957 23.0868Z" fill="#5BA092"/>
<path d="M28 44.2266C22.5973 44.2266 17.5179 42.1226 13.6976 38.3023C9.87728 34.4821 7.77344 29.4027 7.77344 24C7.77344 20.727 8.5735 17.4758 10.0871 14.5978C11.5519 11.8126 13.6821 9.37087 16.2473 7.53647C16.985 7.00884 17.803 8.15278 17.0653 8.68031C14.6776 10.3877 12.695 12.6603 11.3317 15.2524C9.92388 17.9293 9.17969 20.9542 9.17969 24C9.17969 34.3776 17.6224 42.8203 28 42.8203C38.3776 42.8203 46.8203 34.3776 46.8203 24C46.8203 13.6224 38.3776 5.17969 28 5.17969C25.5623 5.17969 23.1907 5.63869 20.951 6.54403C20.1101 6.88378 19.5831 5.58009 20.4241 5.24025C22.8319 4.26694 25.3809 3.77344 28 3.77344C33.4027 3.77344 38.4821 5.87738 42.3024 9.69769C46.1227 13.518 48.2266 18.5973 48.2266 24C48.2266 29.4027 46.1227 34.4821 42.3024 38.3023C38.4821 42.1226 33.4027 44.2266 28 44.2266Z" fill="#6D6D78"/>
<path d="M28 48C21.5894 48 15.5624 45.5035 11.0294 40.9706C6.49647 36.4375 4 30.4106 4 24C4 17.5894 6.49647 11.5625 11.0294 7.02938C15.5624 2.49647 21.5894 0 28 0C34.4106 0 40.4376 2.49647 44.9706 7.02938C49.5035 11.5625 52 17.5894 52 24C52 27.8416 51.1194 31.5119 49.3829 34.9092C47.7267 38.1492 45.3088 41.019 42.3907 43.2086C41.6655 43.7533 40.8213 42.6281 41.5468 42.0838C44.2947 40.022 46.5714 37.3197 48.1307 34.2692C49.7651 31.0719 50.5938 27.6169 50.5938 24C50.5938 17.9649 48.2436 12.2912 43.9762 8.02378C39.7088 3.75637 34.0351 1.40625 28 1.40625C21.9649 1.40625 16.2912 3.75637 12.0238 8.02378C7.75637 12.2912 5.40625 17.9649 5.40625 24C5.40625 30.0351 7.75637 35.7088 12.0238 39.9762C16.2912 44.2436 21.9649 46.5938 28 46.5938C31.4411 46.5938 34.7447 45.8404 37.819 44.3544C38.6357 43.9599 39.2476 45.2259 38.4309 45.6205C35.1643 47.1995 31.6548 48 28 48Z" fill="#6D6D78"/>
<path d="M21.8957 33.9431C20.9334 33.9431 20.1382 33.1374 20.1382 32.1827V22.0313C20.1382 21.1243 21.5445 21.1243 21.5445 22.0313V32.1827C21.5445 32.4512 21.8389 32.6212 22.0714 32.4869L36.2443 24.3042C36.4768 24.17 36.4768 23.83 36.2443 23.6958L22.0714 15.5131C21.8389 15.3789 21.5445 15.5488 21.5445 15.8173V18.0938C21.5445 19.0007 20.1382 19.0007 20.1382 18.0938V15.8173C20.1382 14.4922 21.6262 13.6322 22.7745 14.2953L36.9474 22.478C38.0951 23.1407 38.0956 24.8591 36.9474 25.5221L22.7745 33.7048C22.4993 33.8636 22.1974 33.9431 21.8957 33.9431Z" fill="#6D6D78"/>
</g>
<defs>
<filter id="filter0_d_964_663" x="0" y="0" width="56" height="56" filterUnits="userSpaceOnUse" color-interpolation-filters="sRGB">
<feFlood flood-opacity="0" result="BackgroundImageFix"/>
<feColorMatrix in="SourceAlpha" type="matrix" values="0 0 0 0 0 0 0 0 0 0 0 0 0 0 0 0 0 0 127 0" result="hardAlpha"/>
<feOffset dy="4"/>
<feGaussianBlur stdDeviation="2"/>
<feComposite in2="hardAlpha" operator="out"/>
<feColorMatrix type="matrix" values="0 0 0 0 0 0 0 0 0 0 0 0 0 0 0 0 0 0 0.25 0"/>
<feBlend mode="normal" in2="BackgroundImageFix" result="effect1_dropShadow_964_663"/>
<feBlend mode="normal" in="SourceGraphic" in2="effect1_dropShadow_964_663" result="shape"/>
</filter>
<clipPath id="clip0_964_663">
<rect width="48" height="48" fill="white" transform="translate(4)"/>
</clipPath>
</defs>
</svg>
